<svg width="200" height="200" viewBox="0 0 200 200" fill="none" xmlns="http://www.w3.org/2000/svg">
  <rect width="200" height="200" fill="white"/>
  <!-- Outer square frame -->
  <rect x="20" y="20" width="160" height="160" stroke="black" stroke-width="6" fill="none"/>
  
  <!-- Position detection patterns -->
  <!-- Top left -->
  <rect x="40" y="40" width="36" height="36" fill="black"/>
  <rect x="48" y="48" width="20" height="20" fill="white"/>
  <rect x="56" y="56" width="4" height="4" fill="black"/>
  
  <!-- Top right -->
  <rect x="124" y="40" width="36" height="36" fill="black"/>
  <rect x="132" y="48" width="20" height="20" fill="white"/>
  <rect x="140" y="56" width="4" height="4" fill="black"/>
  
  <!-- Bottom left -->
  <rect x="40" y="124" width="36" height="36" fill="black"/>
  <rect x="48" y="132" width="20" height="20" fill="white"/>
  <rect x="56" y="140" width="4" height="4" fill="black"/>
  
  <!-- QR code data pattern (simplified for placeholder) -->
  <rect x="96" y="40" width="8" height="8" fill="black"/>
  <rect x="88" y="48" width="8" height="8" fill="black"/>
  <rect x="104" y="56" width="8" height="8" fill="black"/>
  <rect x="120" y="96" width="8" height="8" fill="black"/>
  <rect x="80" y="64" width="8" height="8" fill="black"/>
  <rect x="96" y="72" width="8" height="8" fill="black"/>
  <rect x="112" y="80" width="8" height="8" fill="black"/>
  <rect x="96" y="104" width="8" height="8" fill="black"/>
  <rect x="80" y="112" width="8" height="8" fill="black"/>
  <rect x="112" y="128" width="8" height="8" fill="black"/>
  <rect x="120" y="136" width="8" height="8" fill="black"/>
  <rect x="152" y="96" width="8" height="8" fill="black"/>
  <rect x="144" y="136" width="8" height="8" fill="black"/>
  <rect x="136" y="112" width="8" height="8" fill="black"/>
  <rect x="104" y="144" width="8" height="8" fill="black"/>
  
  <!-- Android logo in the center -->
  <g transform="translate(85, 85) scale(0.15)">
    <path d="M90,0 C90,0 42.1,43.6 42.1,43.6 C38.9,45.5 36.5,49.1 36.5,53.3 C36.5,57.5 38.9,61.1 42.1,63 L42.1,63 L90,106.6 C95.7,109.6 102.5,109.6 108.2,106.6 L108.2,106.6 L156.1,63 C159.3,61.1 161.7,57.5 161.7,53.3 C161.7,49.1 159.3,45.5 156.1,43.6 L156.1,43.6 L108.2,0 C105.4,-1.3 102.2,-2 99,-2 C95.8,-2 92.6,-1.3 90,0 Z" fill="#3DDC84"/>
    <path d="M24.2,37.2 C14.8,37.2 7.2,44.8 7.2,54.2 L7.2,54.2 L7.2,135.8 C7.2,145.2 14.8,152.8 24.2,152.8 L24.2,152.8 L45.3,152.8 L45.3,198 C45.3,212.6 57.2,224.5 71.8,224.5 C86.4,224.5 98.3,212.6 98.3,198 L98.3,198 L98.3,152.8 L110,152.8 L110,198 C110,212.6 121.9,224.5 136.5,224.5 C151.1,224.5 163,212.6 163,198 L163,198 L163,152.8 L184.1,152.8 C193.5,152.8 201.1,145.2 201.1,135.8 L201.1,135.8 L201.1,54.2 C201.1,44.8 193.5,37.2 184.1,37.2 L184.1,37.2 Z" fill="#3DDC84"/>
    <path d="M59.9,14.5 C53.3,14.5 48,19.8 48,26.4 C48,33 53.3,38.3 59.9,38.3 C66.5,38.3 71.8,33 71.8,26.4 C71.8,19.8 66.5,14.5 59.9,14.5 Z" fill="#3DDC84"/>
    <path d="M148.4,14.5 C141.8,14.5 136.5,19.8 136.5,26.4 C136.5,33 141.8,38.3 148.4,38.3 C155,38.3 160.3,33 160.3,26.4 C160.3,19.8 155,14.5 148.4,14.5 Z" fill="#3DDC84"/>
  </g>
  
  <!-- Text label at the bottom -->
  <text x="100" y="185" font-family="Arial, sans-serif" font-size="12" text-anchor="middle" fill="black">Scan to download Android app</text>
</svg> 