<svg width="200" height="200" viewBox="0 0 200 200" fill="none" xmlns="http://www.w3.org/2000/svg">
  <rect width="200" height="200" fill="white"/>
  <!-- Outer square frame -->
  <rect x="20" y="20" width="160" height="160" stroke="black" stroke-width="6" fill="none"/>
  
  <!-- Position detection patterns -->
  <!-- Top left -->
  <rect x="40" y="40" width="36" height="36" fill="black"/>
  <rect x="48" y="48" width="20" height="20" fill="white"/>
  <rect x="56" y="56" width="4" height="4" fill="black"/>
  
  <!-- Top right -->
  <rect x="124" y="40" width="36" height="36" fill="black"/>
  <rect x="132" y="48" width="20" height="20" fill="white"/>
  <rect x="140" y="56" width="4" height="4" fill="black"/>
  
  <!-- Bottom left -->
  <rect x="40" y="124" width="36" height="36" fill="black"/>
  <rect x="48" y="132" width="20" height="20" fill="white"/>
  <rect x="56" y="140" width="4" height="4" fill="black"/>
  
  <!-- QR code data pattern (simplified for placeholder) -->
  <rect x="92" y="40" width="8" height="8" fill="black"/>
  <rect x="108" y="40" width="8" height="8" fill="black"/>
  <rect x="84" y="48" width="8" height="8" fill="black"/>
  <rect x="100" y="48" width="8" height="8" fill="black"/>
  <rect x="92" y="56" width="8" height="8" fill="black"/>
  <rect x="84" y="64" width="8" height="8" fill="black"/>
  <rect x="92" y="72" width="8" height="8" fill="black"/>
  <rect x="108" y="72" width="8" height="8" fill="black"/>
  <rect x="100" y="80" width="8" height="8" fill="black"/>
  <rect x="84" y="88" width="8" height="8" fill="black"/>
  <rect x="100" y="88" width="8" height="8" fill="black"/>
  <rect x="92" y="96" width="8" height="8" fill="black"/>
  <rect x="116" y="96" width="8" height="8" fill="black"/>
  <rect x="84" y="104" width="8" height="8" fill="black"/>
  <rect x="108" y="104" width="8" height="8" fill="black"/>
  <rect x="92" y="112" width="8" height="8" fill="black"/>
  <rect x="108" y="112" width="8" height="8" fill="black"/>
  <rect x="84" y="120" width="8" height="8" fill="black"/>
  <rect x="92" y="128" width="8" height="8" fill="black"/>
  <rect x="108" y="128" width="8" height="8" fill="black"/>
  <rect x="116" y="136" width="8" height="8" fill="black"/>
  <rect x="100" y="144" width="8" height="8" fill="black"/>
  
  <!-- Google Play Store logo in the center -->
  <g transform="translate(85, 85) scale(0.15)">
    <path d="M176.515,136.945L54.638,9.847c-2.242-2.338-4.9-3.514-7.96-3.514c-0.921,0-1.857,0.132-2.817,0.392 c-4.545,1.118-7.674,4.997-7.674,9.475v173.602c0,4.539,3.211,8.454,7.836,9.499c0.878,0.198,1.749,0.298,2.611,0.298 c3.092,0,5.78-1.203,8.031-3.583l121.691-127.18C181.037,153.664,181.988,142.647,176.515,136.945z" fill="#3DDC84"/>
    <path d="M58.437,204.129l48.593-50.713L58.437,102.689V204.129z" fill="#37C677"/>
    <path d="M176.001,67.247L107.062,16.11c-2.202-1.63-4.76-2.469-7.369-2.469c-1.578,0-3.158,0.297-4.692,0.899 c-4.889,1.917-8.066,6.517-8.066,11.647v0.639l53.253,55.52L176.001,67.247z" fill="#FFBC00"/>
    <path d="M140.188,102.697l-53.238,55.5v0.771c0,5.258,3.304,9.966,8.339,11.797c1.482,0.539,3.01,0.801,4.538,0.801 c2.739,0,5.414-0.899,7.642-2.65l68.744-51.016L140.188,102.697z" fill="#F64A3C"/>
  </g>
  
  <!-- Text label at the bottom -->
  <text x="100" y="185" font-family="Arial, sans-serif" font-size="12" text-anchor="middle" fill="black">Download Google Play Store APK</text>
</svg> 